<svg width="48" height="48" viewBox="0 0 48 48" fill="none" xmlns="http://www.w3.org/2000/svg">
<path d="M42.0043 30.1579C41.283 29.7429 40.439 29.594 39.6192 29.7371C38.7994 29.8803 38.0558 30.3064 37.5178 30.9413L32.7452 28.4565V19.5435L37.5212 17.0569C38.0939 17.7269 38.896 18.159 39.7705 18.2687C40.6451 18.3784 41.5291 18.1578 42.2495 17.65C42.9699 17.1422 43.4749 16.3839 43.6656 15.5234C43.8563 14.6629 43.719 13.7621 43.2806 12.9975C42.8422 12.2329 42.1342 11.6595 41.2952 11.3894C40.4562 11.1193 39.5466 11.1721 38.7445 11.5374C37.9423 11.9026 37.3054 12.5541 36.9583 13.3643C36.6112 14.1744 36.579 15.085 36.8679 15.9177L32.0889 18.4058L24.6564 14.5365V8.75179C25.5265 8.58827 26.3042 8.10584 26.8372 7.39898C27.3702 6.69211 27.6201 5.81173 27.538 4.93024C27.4559 4.04876 27.0477 3.22969 26.3933 2.63342C25.7389 2.03716 24.8855 1.70667 24.0002 1.70667C23.1149 1.70667 22.2615 2.03716 21.6071 2.63342C20.9527 3.22969 20.5445 4.04876 20.4624 4.93024C20.3803 5.81173 20.6302 6.69211 21.1632 7.39898C21.6962 8.10584 22.4739 8.58827 23.3439 8.75179V14.5365L15.9114 18.4058L11.1324 15.9177C11.4271 15.0747 11.3963 14.1522 11.0461 13.3308C10.6959 12.5094 10.0515 11.8484 9.23928 11.4775C8.42707 11.1065 7.50558 11.0522 6.65545 11.3254C5.80531 11.5985 5.08784 12.1793 4.64368 12.9539C4.19951 13.7285 4.06067 14.6411 4.25438 15.5128C4.44809 16.3844 4.96037 17.1523 5.69082 17.6659C6.42126 18.1795 7.31719 18.4017 8.20298 18.2891C9.08878 18.1764 9.90056 17.737 10.4792 17.0569L15.2552 19.5435V28.4565L10.4822 30.9413C9.90997 30.2675 9.10686 29.8316 8.23011 29.7189C7.35336 29.6062 6.46611 29.8248 5.74209 30.332C5.01806 30.8391 4.5094 31.5982 4.3157 32.4607C4.122 33.3232 4.25721 34.2269 4.69486 34.9949C5.1325 35.763 5.84106 36.34 6.68181 36.613C7.52255 36.886 8.43493 36.8354 9.24031 36.471C10.0457 36.1066 10.686 35.4548 11.036 34.643C11.386 33.8313 11.4204 32.9182 11.1324 32.0824L15.9114 29.5943L23.3439 33.4635V39.2483C22.4739 39.4118 21.6962 39.8942 21.1632 40.6011C20.6302 41.308 20.3803 42.1883 20.4624 43.0698C20.5445 43.9513 20.9527 44.7704 21.6071 45.3666C22.2615 45.9629 23.1149 46.2934 24.0002 46.2934C24.8855 46.2934 25.7389 45.9629 26.3933 45.3666C27.0477 44.7704 27.4559 43.9513 27.538 43.0698C27.6201 42.1883 27.3702 41.308 26.8372 40.6011C26.3042 39.8942 25.5265 39.4118 24.6564 39.2483V33.4635L32.0889 29.5943L36.8679 32.0824C36.6496 32.7194 36.6167 33.4054 36.7733 34.0604C36.9299 34.7154 37.2693 35.3124 37.7522 35.7818C38.235 36.2512 38.8413 36.5737 39.5005 36.7118C40.1596 36.8498 40.8444 36.7977 41.475 36.5615C42.1056 36.3252 42.6561 35.9146 43.0623 35.3775C43.4686 34.8404 43.7137 34.1989 43.7693 33.5278C43.8249 32.8566 43.6886 32.1835 43.3763 31.5869C43.064 30.9903 42.5886 30.4947 42.0054 30.1579H42.0043ZM39.1074 12.825C39.4912 12.6033 39.9321 12.5004 40.3744 12.5293C40.8166 12.5581 41.2404 12.7175 41.592 12.9873C41.9437 13.257 42.2075 13.625 42.35 14.0446C42.4925 14.4643 42.5074 14.9168 42.3927 15.3449C42.278 15.773 42.0389 16.1575 41.7057 16.4497C41.3725 16.742 40.9601 16.9288 40.5207 16.9866C40.0812 17.0444 39.6345 16.9706 39.2371 16.7745C38.8396 16.5785 38.5092 16.2689 38.2877 15.885C38.139 15.6307 38.0422 15.3494 38.0029 15.0574C37.9636 14.7654 37.9827 14.4685 38.0589 14.1839C38.1351 13.8994 38.2671 13.6327 38.4471 13.3995C38.627 13.1662 38.8515 12.971 39.1074 12.825ZM21.7596 5.26204C21.7596 4.81888 21.891 4.38568 22.1372 4.01721C22.3834 3.64874 22.7333 3.36156 23.1427 3.19197C23.5522 3.02238 24.0027 2.97801 24.4373 3.06446C24.872 3.15092 25.2712 3.36432 25.5846 3.67767C25.8979 3.99103 26.1113 4.39027 26.1978 4.82491C26.2842 5.25955 26.2398 5.71006 26.0703 6.11949C25.9007 6.52891 25.6135 6.87884 25.245 7.12505C24.8766 7.37125 24.4433 7.50266 24.0002 7.50266C23.4061 7.50206 22.8366 7.26581 22.4165 6.84574C21.9964 6.42567 21.7602 5.8561 21.7596 5.26204ZM24.0002 15.675L30.6677 19.1464L24.0002 22.6174L17.3327 19.1457L24.0002 15.675ZM6.65232 16.7063C6.26845 16.4849 5.95885 16.1546 5.7627 15.7572C5.56654 15.3598 5.49262 14.9132 5.5503 14.4738C5.60797 14.0344 5.79464 13.622 6.08671 13.2887C6.37878 12.9554 6.76312 12.7162 7.19114 12.6013C7.61915 12.4865 8.07162 12.5011 8.49131 12.6434C8.911 12.7857 9.27907 13.0493 9.54898 13.4008C9.81888 13.7522 9.9785 14.1759 10.0076 14.6181C10.0368 15.0603 9.93414 15.5012 9.71269 15.885C9.41507 16.399 8.92578 16.774 8.3521 16.9278C7.77841 17.0816 7.16715 17.0017 6.65232 16.7055V16.7063ZM8.89294 35.175C8.50919 35.3968 8.0683 35.4997 7.62604 35.4708C7.18377 35.4419 6.76001 35.2825 6.40834 35.0128C6.05668 34.7431 5.79291 34.3751 5.6504 33.9554C5.50788 33.5358 5.49303 33.0833 5.60772 32.6551C5.7224 32.227 5.96148 31.8426 6.2947 31.5503C6.62792 31.2581 7.04032 31.0713 7.47974 31.0135C7.91915 30.9557 8.36584 31.0295 8.76331 31.2255C9.16078 31.4216 9.49117 31.7312 9.71269 32.115C9.86141 32.3694 9.95821 32.6507 9.99748 32.9427C10.0368 33.2347 10.0177 33.5315 9.94148 33.8161C9.86524 34.1007 9.73331 34.3674 9.55333 34.6006C9.37335 34.8339 9.14889 35.0291 8.89294 35.175ZM16.5677 20.2268L23.3439 23.7548V31.9842L16.5677 28.4565V20.2268ZM26.2408 42.738C26.2408 43.1812 26.1094 43.6144 25.8632 43.9829C25.617 44.3513 25.2671 44.6385 24.8576 44.8081C24.4482 44.9777 23.9977 45.0221 23.5631 44.9356C23.1284 44.8492 22.7292 44.6358 22.4158 44.3224C22.1025 44.009 21.8891 43.6098 21.8026 43.1752C21.7162 42.7405 21.7605 42.29 21.9301 41.8806C22.0997 41.4712 22.3869 41.1212 22.7554 40.875C23.1238 40.6288 23.557 40.4974 24.0002 40.4974C24.5943 40.498 25.1638 40.7343 25.5839 41.1543C26.004 41.5744 26.2402 42.144 26.2408 42.738ZM24.6564 31.9842V23.7548L31.4327 20.2268V28.4565L24.6564 31.9842ZM42.1689 34.3553C41.9474 34.7391 41.617 35.0485 41.2195 35.2445C40.8221 35.4405 40.3754 35.5143 39.936 35.4564C39.4967 35.3986 39.0843 35.2118 38.7512 34.9196C38.418 34.6274 38.1789 34.2429 38.0642 33.8149C37.9495 33.3868 37.9643 32.9344 38.1068 32.5147C38.2492 32.0951 38.5129 31.7271 38.8645 31.4574C39.2161 31.1876 39.6398 31.0281 40.082 30.9991C40.5242 30.9702 40.965 31.073 41.3488 31.2945C41.6052 31.4402 41.83 31.6353 42.0103 31.8686C42.1905 32.1019 42.3226 32.3687 42.3989 32.6535C42.4751 32.9383 42.494 33.2354 42.4544 33.5275C42.4148 33.8197 42.3175 34.1011 42.1682 34.3553H42.1689Z" fill="#1A488D" stroke="#1A488D" stroke-width="0.5"/>
</svg>
