<svg width="60" height="60" viewBox="0 0 60 60" fill="none" xmlns="http://www.w3.org/2000/svg">
<path d="M28.5812 43.3158C34.471 37.3565 36.1321 28.2716 32.6754 20.6276C31.6827 18.4323 30.2726 16.4467 28.5812 14.7353C28.0147 14.1621 27.1305 15.0463 27.6971 15.6195C33.1898 21.1771 34.8313 29.7528 31.5493 36.8932C30.6003 38.9578 29.2931 40.8167 27.6971 42.4315C27.1308 43.0046 28.0144 43.8893 28.5812 43.3158Z" fill="#1A488D" stroke="#1A488D" stroke-width="0.7"/>
<path d="M24.7221 39.4563C30.3919 33.6938 30.3921 24.3569 24.7221 18.5944C24.1568 18.0199 23.2728 18.9042 23.838 19.4786C29.0316 24.757 29.0316 33.2935 23.838 38.572C23.273 39.1463 24.1567 40.0311 24.7221 39.4563Z" fill="#1A488D" stroke="#1A488D" stroke-width="0.7"/>
<path d="M20.9382 35.6726C24.5454 31.9701 24.5454 26.0807 20.9382 22.3781C20.3757 21.8007 19.4918 22.6853 20.0541 23.2623C23.1858 26.4769 23.1859 31.5737 20.0541 34.7885C19.4921 35.3653 20.3755 36.2504 20.9382 35.6726Z" fill="#1A488D" stroke="#1A488D" stroke-width="0.7"/>
<path d="M47.6102 37.3076C50.9008 29.1313 48.959 19.571 42.6965 13.3684C36.9614 7.688 28.3257 5.56939 20.6144 7.98344C13.0818 10.3416 7.20401 16.7746 5.60934 24.5167C3.98396 32.4079 6.85001 40.7701 13.0531 45.9334C19.78 51.5327 29.4162 52.6434 37.2292 48.6471C38.3016 48.0987 39.3189 47.4575 40.2883 46.7435C40.9295 46.2713 40.3064 45.1856 39.6571 45.6637C32.736 50.7604 23.2464 51.1831 15.9846 46.5414C9.61997 42.4731 5.94565 35.1116 6.44496 27.5862C6.94279 20.0832 11.6531 13.3287 18.4487 10.1541C25.3418 6.93409 33.6987 7.8713 39.75 12.4562C46.141 17.2984 49.2195 25.6397 47.4976 33.4756C47.2344 34.6726 46.8619 35.8388 46.4045 36.9752C46.1039 37.7216 47.313 38.046 47.6102 37.3076Z" fill="#1A488D" stroke="#1A488D" stroke-width="0.7"/>
<path d="M40.5511 33.1434C39.2043 34.4903 37.8574 35.8371 36.5106 37.1839C35.9968 37.6977 35.4546 38.1945 34.9638 38.7307C34.0523 39.7266 34.0743 41.1206 34.9861 42.1012C37.7041 45.0247 40.6494 47.7645 43.472 50.5871C44.5552 51.6703 45.7824 53.42 47.5433 52.9084C48.3239 52.6815 48.8812 51.9736 49.4354 51.4194C50.2725 50.5823 51.1095 49.7453 51.9466 48.9083C53.2506 47.6043 55.8728 45.7636 54.3735 43.6718C54.1118 43.3065 53.7495 42.9999 53.4336 42.6838C52.7483 41.9985 52.0628 41.3131 51.3775 40.6277C49.4583 38.7085 47.5391 36.7895 45.62 34.8703C45.0863 34.3366 44.5605 33.7936 44.0183 33.2686C43.007 32.289 41.6274 32.193 40.5511 33.1434C39.9467 33.6771 40.8338 34.5588 41.4353 34.0276C42.6287 32.9738 44.1617 35.1802 44.9103 35.929C46.4594 37.478 48.0084 39.027 49.5575 40.5761C50.714 41.7324 51.8886 42.8734 53.028 44.0466C53.5489 44.583 53.7814 45.2026 53.2207 45.8653C52.7925 46.3714 52.2656 46.8204 51.7974 47.2886C50.445 48.641 49.1373 50.0656 47.7276 51.3583C46.5606 52.4287 45.4619 50.8088 44.6864 50.0334C41.8982 47.2452 39.1101 44.4571 36.3219 41.6688C35.7377 41.0847 35.1704 40.4459 35.8448 39.6179C36.2691 39.0969 36.8194 38.6432 37.294 38.1685C38.6742 36.7882 40.0546 35.4079 41.4349 34.0276C42.0051 33.4578 41.1212 32.5734 40.5511 33.1434Z" fill="#1A488D"/>
<path d="M40.5511 33.1434C39.2043 34.4903 37.8574 35.8371 36.5106 37.1839C35.9968 37.6977 35.4546 38.1945 34.9638 38.7307C34.0523 39.7266 34.0743 41.1206 34.9861 42.1012C37.7041 45.0247 40.6494 47.7645 43.472 50.5871C44.5552 51.6703 45.7824 53.42 47.5433 52.9084C48.3239 52.6815 48.8812 51.9736 49.4354 51.4194C50.2725 50.5823 51.1095 49.7453 51.9466 48.9083C53.2506 47.6043 55.8728 45.7636 54.3735 43.6718C54.1118 43.3065 53.7495 42.9999 53.4336 42.6838C52.7483 41.9985 52.0628 41.3131 51.3775 40.6277C49.4583 38.7085 47.5391 36.7895 45.62 34.8703C45.0863 34.3366 44.5605 33.7936 44.0183 33.2686C43.007 32.289 41.6274 32.193 40.5511 33.1434ZM40.5511 33.1434C39.9467 33.6771 40.8338 34.5588 41.4353 34.0276C42.6287 32.9738 44.1617 35.1802 44.9103 35.929C46.4594 37.478 48.0084 39.027 49.5575 40.5761C50.714 41.7324 51.8886 42.8734 53.028 44.0466C53.5489 44.583 53.7814 45.2026 53.2207 45.8653C52.7925 46.3714 52.2656 46.8204 51.7974 47.2886C50.445 48.641 49.1373 50.0656 47.7276 51.3583C46.5606 52.4287 45.4619 50.8088 44.6864 50.0334C41.8982 47.2452 39.1101 44.4571 36.3219 41.6688C35.7377 41.0847 35.1704 40.4459 35.8448 39.6179C36.2691 39.0969 36.8194 38.6432 37.294 38.1685C38.6742 36.7882 40.0546 35.4079 41.4349 34.0276C42.0051 33.4578 41.1212 32.5734 40.5511 33.1434Z" stroke="#1A488D" stroke-width="0.7"/>
</svg>
