<svg width="60" height="60" viewBox="0 0 60 60" fill="none" xmlns="http://www.w3.org/2000/svg">
<g clip-path="url(#clip0_78_149)">
<path d="M17.5 45C14.3807 45 11.3892 43.8147 9.18347 41.705C6.97779 39.5952 5.73865 36.7337 5.73865 33.75C5.73865 30.7663 6.97779 27.9048 9.18347 25.7951C11.3892 23.6853 14.3807 22.5 17.5 22.5C18.2367 19.2179 20.3919 16.3337 23.4915 14.4818C25.0262 13.5648 26.7466 12.9289 28.5544 12.6103C30.3623 12.2917 32.2221 12.2967 34.0278 12.625C35.8335 12.9533 37.5496 13.5985 39.0782 14.5237C40.6069 15.4489 41.918 16.636 42.9369 18.0173C43.9558 19.3986 44.6624 20.947 45.0164 22.574C45.3703 24.201 45.3648 25.8749 45 27.5H47.5C49.8207 27.5 52.0463 28.4219 53.6872 30.0628C55.3281 31.7038 56.25 33.9294 56.25 36.25C56.25 38.5706 55.3281 40.7962 53.6872 42.4372C52.0463 44.0781 49.8207 45 47.5 45H45" stroke="#1A488D" stroke-width="2" stroke-linecap="round" stroke-linejoin="round"/>
<path d="M22.5 37.5L30 30L37.5 37.5" stroke="#1A488D" stroke-width="2" stroke-linecap="round" stroke-linejoin="round"/>
<path d="M30 30V52.5" stroke="#1A488D" stroke-width="2" stroke-linecap="round" stroke-linejoin="round"/>
</g>
<defs>
<clipPath id="clip0_78_149">
<rect width="60" height="60" fill="white"/>
</clipPath>
</defs>
</svg>
